<svg width="20" height="21" viewBox="0 0 20 21" fill="none" xmlns="http://www.w3.org/2000/svg">
    <path
        d="M15.0002 8.83333C14.7791 8.83333 14.5672 8.74554 14.4109 8.58926C14.2546 8.43297 14.1668 8.22101 14.1668 8C14.1668 7.77899 14.2546 7.56702 14.4109 7.41074C14.5672 7.25446 14.7791 7.16667 15.0002 7.16667C15.2212 7.16667 15.4331 7.25446 15.5894 7.41074C15.7457 7.56702 15.8335 7.77899 15.8335 8C15.8335 8.22101 15.7457 8.43297 15.5894 8.58926C15.4331 8.74554 15.2212 8.83333 15.0002 8.83333ZM10.0002 8.83333H5.00016V4.66667H10.0002M16.4752 6.525L16.4835 6.51667L13.3835 3.41667L12.5002 4.3L14.2585 6.05833C13.4752 6.33333 12.9168 7.10833 12.9168 8C12.9168 8.27359 12.9707 8.5445 13.0754 8.79726C13.1801 9.05002 13.3336 9.27968 13.527 9.47314C13.9177 9.86384 14.4476 10.0833 15.0002 10.0833C15.3002 10.0833 15.5752 10.0167 15.8335 9.90833V15.9167C15.8335 16.1377 15.7457 16.3496 15.5894 16.5059C15.4331 16.6622 15.2212 16.75 15.0002 16.75C14.7791 16.75 14.5672 16.6622 14.4109 16.5059C14.2546 16.3496 14.1668 16.1377 14.1668 15.9167V12.1667C14.1668 11.7246 13.9912 11.3007 13.6787 10.9882C13.3661 10.6756 12.9422 10.5 12.5002 10.5H11.6668V4.66667C11.6668 4.22464 11.4912 3.80072 11.1787 3.48816C10.8661 3.17559 10.4422 3 10.0002 3H5.00016C4.07516 3 3.3335 3.74167 3.3335 4.66667V18H11.6668V11.75H12.9168V15.9167C12.9168 16.4692 13.1363 16.9991 13.527 17.3898C13.9177 17.7805 14.4476 18 15.0002 18C15.2737 18 15.5447 17.9461 15.7974 17.8414C16.0502 17.7367 16.2798 17.5833 16.4733 17.3898C16.6668 17.1964 16.8202 16.9667 16.9249 16.7139C17.0296 16.4612 17.0835 16.1903 17.0835 15.9167V8C17.0835 7.425 16.8502 6.9 16.4752 6.525Z"
        fill="black" />
</svg>